<mxfile host="drawio-plugin" modified="2021-05-26T22:31:48.799Z" agent="5.0 (Windows NT 6.2; Win64; x64) AppleWebKit/537.36 (KHTML, like Gecko) Chrome/81.0.4044.113 Safari/537.36" etag="g14iX0vhduC-ve0J_elv" version="13.7.9" type="embed"><diagram id="W6U0A2MfCZRS0V99DXI1" name="5-25"><mxGraphModel dx="945" dy="709" grid="1" gridSize="10" guides="1" tooltips="1" connect="1" arrows="1" fold="1" page="1" pageScale="1" pageWidth="850" pageHeight="1100" math="0" shadow="0"><root><mxCell id="0"/><mxCell id="1" parent="0"/><mxCell id="59" style="edgeStyle=orthogonalEdgeStyle;orthogonalLoop=1;jettySize=auto;html=1;entryX=-0.005;entryY=0.024;entryDx=0;entryDy=0;entryPerimeter=0;rounded=0;" parent="1" source="4" target="24" edge="1"><mxGeometry relative="1" as="geometry"><Array as="points"><mxPoint x="250" y="75"/><mxPoint x="250" y="28"/></Array></mxGeometry></mxCell><mxCell id="2" value="Environment" style="swimlane;fontStyle=0;childLayout=stackLayout;horizontal=1;startSize=26;fillColor=#008a00;horizontalStack=0;resizeParent=1;resizeParentMax=0;resizeLast=0;collapsible=1;marginBottom=0;strokeColor=#005700;fontColor=#ffffff;" parent="1" vertex="1"><mxGeometry y="10" width="240" height="408" as="geometry"><mxRectangle x="10" y="10" width="100" height="26" as="alternateBounds"/></mxGeometry></mxCell><mxCell id="3" value="- enable_render: boolean" style="text;strokeColor=none;fillColor=none;align=left;verticalAlign=top;spacingLeft=4;spacingRight=4;overflow=hidden;rotatable=0;points=[[0,0.5],[1,0.5]];portConstraint=eastwest;" parent="2" vertex="1"><mxGeometry y="26" width="240" height="26" as="geometry"/></mxCell><mxCell id="4" value="- game: Game" style="text;strokeColor=none;fillColor=none;align=left;verticalAlign=top;spacingLeft=4;spacingRight=4;overflow=hidden;rotatable=0;points=[[0,0.5],[1,0.5]];portConstraint=eastwest;" parent="2" vertex="1"><mxGeometry y="52" width="240" height="26" as="geometry"/></mxCell><mxCell id="9" value="- stag_reward: int&#10;" style="text;strokeColor=none;fillColor=none;align=left;verticalAlign=top;spacingLeft=4;spacingRight=4;overflow=hidden;rotatable=0;points=[[0,0.5],[1,0.5]];portConstraint=eastwest;" parent="2" vertex="1"><mxGeometry y="78" width="240" height="26" as="geometry"/></mxCell><mxCell id="10" value="- hare_reward: int" style="text;strokeColor=none;fillColor=none;align=left;verticalAlign=top;spacingLeft=4;spacingRight=4;overflow=hidden;rotatable=0;points=[[0,0.5],[1,0.5]];portConstraint=eastwest;" parent="2" vertex="1"><mxGeometry y="104" width="240" height="26" as="geometry"/></mxCell><mxCell id="11" value="- action_space: gym.spaces.Discrete" style="text;strokeColor=none;fillColor=none;align=left;verticalAlign=top;spacingLeft=4;spacingRight=4;overflow=hidden;rotatable=0;points=[[0,0.5],[1,0.5]];portConstraint=eastwest;" parent="2" vertex="1"><mxGeometry y="130" width="240" height="26" as="geometry"/></mxCell><mxCell id="12" value="- observation_space: gym.spaces.Box" style="text;strokeColor=none;fillColor=none;align=left;verticalAlign=top;spacingLeft=4;spacingRight=4;overflow=hidden;rotatable=0;points=[[0,0.5],[1,0.5]];portConstraint=eastwest;" parent="2" vertex="1"><mxGeometry y="156" width="240" height="26" as="geometry"/></mxCell><mxCell id="13" value="- state: np.array" style="text;strokeColor=none;fillColor=none;align=left;verticalAlign=top;spacingLeft=4;spacingRight=4;overflow=hidden;rotatable=0;points=[[0,0.5],[1,0.5]];portConstraint=eastwest;" parent="2" vertex="1"><mxGeometry y="182" width="240" height="26" as="geometry"/></mxCell><mxCell id="14" value="- done: boolean" style="text;strokeColor=none;fillColor=none;align=left;verticalAlign=top;spacingLeft=4;spacingRight=4;overflow=hidden;rotatable=0;points=[[0,0.5],[1,0.5]];portConstraint=eastwest;" parent="2" vertex="1"><mxGeometry y="208" width="240" height="26" as="geometry"/></mxCell><mxCell id="16" value="" style="line;strokeWidth=1;fillColor=none;align=left;verticalAlign=middle;spacingTop=-1;spacingLeft=3;spacingRight=3;rotatable=0;labelPosition=right;points=[];portConstraint=eastwest;" parent="2" vertex="1"><mxGeometry y="234" width="240" height="8" as="geometry"/></mxCell><mxCell id="17" value="+ __del__(): None" style="text;strokeColor=none;fillColor=none;align=left;verticalAlign=top;spacingLeft=4;spacingRight=4;overflow=hidden;rotatable=0;points=[[0,0.5],[1,0.5]];portConstraint=eastwest;" parent="2" vertex="1"><mxGeometry y="242" width="240" height="26" as="geometry"/></mxCell><mxCell id="19" value="+ seed(seed: int): [int]" style="text;strokeColor=none;fillColor=none;align=left;verticalAlign=top;spacingLeft=4;spacingRight=4;overflow=hidden;rotatable=0;points=[[0,0.5],[1,0.5]];portConstraint=eastwest;" parent="2" vertex="1"><mxGeometry y="268" width="240" height="26" as="geometry"/></mxCell><mxCell id="20" value="+ step(actions: tuple): state: np.array,&#10;reward: tuple, done: boolean, info: dict" style="text;strokeColor=none;fillColor=none;align=left;verticalAlign=top;spacingLeft=4;spacingRight=4;overflow=hidden;rotatable=0;points=[[0,0.5],[1,0.5]];portConstraint=eastwest;" parent="2" vertex="1"><mxGeometry y="294" width="240" height="44" as="geometry"/></mxCell><mxCell id="21" value="+ reset(): state: np.array" style="text;strokeColor=none;fillColor=none;align=left;verticalAlign=top;spacingLeft=4;spacingRight=4;overflow=hidden;rotatable=0;points=[[0,0.5],[1,0.5]];portConstraint=eastwest;" parent="2" vertex="1"><mxGeometry y="338" width="240" height="26" as="geometry"/></mxCell><mxCell id="22" value="+ render(mode: string, close: boolean): &#10;ImgOutput: [[int]]" style="text;strokeColor=none;fillColor=none;align=left;verticalAlign=top;spacingLeft=4;spacingRight=4;overflow=hidden;rotatable=0;points=[[0,0.5],[1,0.5]];portConstraint=eastwest;" parent="2" vertex="1"><mxGeometry y="364" width="240" height="44" as="geometry"/></mxCell><mxCell id="60" style="edgeStyle=orthogonalEdgeStyle;orthogonalLoop=1;jettySize=auto;html=1;exitX=1;exitY=0.5;exitDx=0;exitDy=0;" parent="2" source="4" target="4" edge="1"><mxGeometry relative="1" as="geometry"/></mxCell><mxCell id="78" value="Renderer" style="swimlane;fontStyle=1;align=center;verticalAlign=top;childLayout=stackLayout;horizontal=1;startSize=26;horizontalStack=0;resizeParent=1;resizeParentMax=0;resizeLast=0;collapsible=1;marginBottom=0;fillColor=#a20025;strokeColor=#6F0000;fontColor=#ffffff;" parent="1" vertex="1"><mxGeometry x="590" y="10" width="260" height="750" as="geometry"/></mxCell><mxCell id="79" value="- clock: pg.Clock" style="text;strokeColor=none;fillColor=none;align=left;verticalAlign=top;spacingLeft=4;spacingRight=4;overflow=hidden;rotatable=0;points=[[0,0.5],[1,0.5]];portConstraint=eastwest;" parent="78" vertex="1"><mxGeometry y="26" width="260" height="26" as="geometry"/></mxCell><mxCell id="80" value="- _screen: pg.Surface" style="text;strokeColor=none;fillColor=none;align=left;verticalAlign=top;spacingLeft=4;spacingRight=4;overflow=hidden;rotatable=0;points=[[0,0.5],[1,0.5]];portConstraint=eastwest;" parent="78" vertex="1"><mxGeometry y="52" width="260" height="26" as="geometry"/></mxCell><mxCell id="81" value="- _screen_size: tuple" style="text;strokeColor=none;fillColor=none;align=left;verticalAlign=top;spacingLeft=4;spacingRight=4;overflow=hidden;rotatable=0;points=[[0,0.5],[1,0.5]];portConstraint=eastwest;" parent="78" vertex="1"><mxGeometry y="78" width="260" height="26" as="geometry"/></mxCell><mxCell id="82" value="- _game_state: Game" style="text;strokeColor=none;fillColor=none;align=left;verticalAlign=top;spacingLeft=4;spacingRight=4;overflow=hidden;rotatable=0;points=[[0,0.5],[1,0.5]];portConstraint=eastwest;" parent="78" vertex="1"><mxGeometry y="104" width="260" height="26" as="geometry"/></mxCell><mxCell id="83" value="- _background: pg.Surface" style="text;strokeColor=none;fillColor=none;align=left;verticalAlign=top;spacingLeft=4;spacingRight=4;overflow=hidden;rotatable=0;points=[[0,0.5],[1,0.5]];portConstraint=eastwest;" parent="78" vertex="1"><mxGeometry y="130" width="260" height="26" as="geometry"/></mxCell><mxCell id="84" value="- _grid_layer: pg.Surface" style="text;strokeColor=none;fillColor=none;align=left;verticalAlign=top;spacingLeft=4;spacingRight=4;overflow=hidden;rotatable=0;points=[[0,0.5],[1,0.5]];portConstraint=eastwest;" parent="78" vertex="1"><mxGeometry y="156" width="260" height="26" as="geometry"/></mxCell><mxCell id="85" value="- _entity_layer: pg.Surface" style="text;strokeColor=none;fillColor=none;align=left;verticalAlign=top;spacingLeft=4;spacingRight=4;overflow=hidden;rotatable=0;points=[[0,0.5],[1,0.5]];portConstraint=eastwest;" parent="78" vertex="1"><mxGeometry y="182" width="260" height="26" as="geometry"/></mxCell><mxCell id="86" value="- _a_sprite: Entity" style="text;strokeColor=none;fillColor=none;align=left;verticalAlign=top;spacingLeft=4;spacingRight=4;overflow=hidden;rotatable=0;points=[[0,0.5],[1,0.5]];portConstraint=eastwest;" parent="78" vertex="1"><mxGeometry y="208" width="260" height="26" as="geometry"/></mxCell><mxCell id="104" value="- _b_sprite: Entity" style="text;strokeColor=none;fillColor=none;align=left;verticalAlign=top;spacingLeft=4;spacingRight=4;overflow=hidden;rotatable=0;points=[[0,0.5],[1,0.5]];portConstraint=eastwest;" parent="78" vertex="1"><mxGeometry y="234" width="260" height="26" as="geometry"/></mxCell><mxCell id="105" value="- _stag_sprite: Entity" style="text;strokeColor=none;fillColor=none;align=left;verticalAlign=top;spacingLeft=4;spacingRight=4;overflow=hidden;rotatable=0;points=[[0,0.5],[1,0.5]];portConstraint=eastwest;" parent="78" vertex="1"><mxGeometry y="260" width="260" height="26" as="geometry"/></mxCell><mxCell id="106" value="- _hare_sprite: Entity" style="text;strokeColor=none;fillColor=none;align=left;verticalAlign=top;spacingLeft=4;spacingRight=4;overflow=hidden;rotatable=0;points=[[0,0.5],[1,0.5]];portConstraint=eastwest;" parent="78" vertex="1"><mxGeometry y="286" width="260" height="26" as="geometry"/></mxCell><mxCell id="87" value="" style="line;strokeWidth=1;fillColor=none;align=left;verticalAlign=middle;spacingTop=-1;spacingLeft=3;spacingRight=3;rotatable=0;labelPosition=right;points=[];portConstraint=eastwest;" parent="78" vertex="1"><mxGeometry y="312" width="260" height="8" as="geometry"/></mxCell><mxCell id="88" value="+ update_render(): np.array" style="text;strokeColor=none;fillColor=none;align=left;verticalAlign=top;spacingLeft=4;spacingRight=4;overflow=hidden;rotatable=0;points=[[0,0.5],[1,0.5]];portConstraint=eastwest;" parent="78" vertex="1"><mxGeometry y="320" width="260" height="28" as="geometry"/></mxCell><mxCell id="89" value="+ update(): np.array" style="text;strokeColor=none;fillColor=none;align=left;verticalAlign=top;spacingLeft=4;spacingRight=4;overflow=hidden;rotatable=0;points=[[0,0.5],[1,0.5]];portConstraint=eastwest;" parent="78" vertex="1"><mxGeometry y="348" width="260" height="28" as="geometry"/></mxCell><mxCell id="90" value="+ quit(): None" style="text;strokeColor=none;fillColor=none;align=left;verticalAlign=top;spacingLeft=4;spacingRight=4;overflow=hidden;rotatable=0;points=[[0,0.5],[1,0.5]];portConstraint=eastwest;" parent="78" vertex="1"><mxGeometry y="376" width="260" height="28" as="geometry"/></mxCell><mxCell id="107" value="+ controller_update(): None" style="text;strokeColor=none;fillColor=none;align=left;verticalAlign=top;spacingLeft=4;spacingRight=4;overflow=hidden;rotatable=0;points=[[0,0.5],[1,0.5]];portConstraint=eastwest;" parent="78" vertex="1"><mxGeometry y="404" width="260" height="28" as="geometry"/></mxCell><mxCell id="108" value="+ _draw_grid(): None" style="text;strokeColor=none;fillColor=none;align=left;verticalAlign=top;spacingLeft=4;spacingRight=4;overflow=hidden;rotatable=0;points=[[0,0.5],[1,0.5]];portConstraint=eastwest;" parent="78" vertex="1"><mxGeometry y="432" width="260" height="28" as="geometry"/></mxCell><mxCell id="109" value="+ _draw_agents(): None" style="text;strokeColor=none;fillColor=none;align=left;verticalAlign=top;spacingLeft=4;spacingRight=4;overflow=hidden;rotatable=0;points=[[0,0.5],[1,0.5]];portConstraint=eastwest;" parent="78" vertex="1"><mxGeometry y="460" width="260" height="28" as="geometry"/></mxCell><mxCell id="110" value="+ _draw_prey(): None" style="text;strokeColor=none;fillColor=none;align=left;verticalAlign=top;spacingLeft=4;spacingRight=4;overflow=hidden;rotatable=0;points=[[0,0.5],[1,0.5]];portConstraint=eastwest;" parent="78" vertex="1"><mxGeometry y="488" width="260" height="28" as="geometry"/></mxCell><mxCell id="111" value="+  _update_rects(entity_positions:dict): None" style="text;strokeColor=none;fillColor=none;align=left;verticalAlign=top;spacingLeft=4;spacingRight=4;overflow=hidden;rotatable=0;points=[[0,0.5],[1,0.5]];portConstraint=eastwest;" parent="78" vertex="1"><mxGeometry y="516" width="260" height="28" as="geometry"/></mxCell><mxCell id="91" value="" style="line;strokeWidth=1;fillColor=none;align=left;verticalAlign=middle;spacingTop=-1;spacingLeft=3;spacingRight=3;rotatable=0;labelPosition=right;points=[];portConstraint=eastwest;" parent="78" vertex="1"><mxGeometry y="544" width="260" height="8" as="geometry"/></mxCell><mxCell id="92" value="@ SCREEN_SIZE: self._screen_size" style="text;strokeColor=none;fillColor=none;align=left;verticalAlign=top;spacingLeft=4;spacingRight=4;overflow=hidden;rotatable=0;points=[[0,0.5],[1,0.5]];portConstraint=eastwest;" parent="78" vertex="1"><mxGeometry y="552" width="260" height="28" as="geometry"/></mxCell><mxCell id="93" value="@ SCREEN_W: self._screen_size[0]" style="text;strokeColor=none;fillColor=none;align=left;verticalAlign=top;spacingLeft=4;spacingRight=4;overflow=hidden;rotatable=0;points=[[0,0.5],[1,0.5]];portConstraint=eastwest;" parent="78" vertex="1"><mxGeometry y="580" width="260" height="30" as="geometry"/></mxCell><mxCell id="94" value="@ SCREEN_H: self._screen_size[1]" style="text;strokeColor=none;fillColor=none;align=left;verticalAlign=top;spacingLeft=4;spacingRight=4;overflow=hidden;rotatable=0;points=[[0,0.5],[1,0.5]];portConstraint=eastwest;" parent="78" vertex="1"><mxGeometry y="610" width="260" height="28" as="geometry"/></mxCell><mxCell id="95" value="@ GRID_W: self._game_state.GRID_W" style="text;strokeColor=none;fillColor=none;align=left;verticalAlign=top;spacingLeft=4;spacingRight=4;overflow=hidden;rotatable=0;points=[[0,0.5],[1,0.5]];portConstraint=eastwest;" parent="78" vertex="1"><mxGeometry y="638" width="260" height="28" as="geometry"/></mxCell><mxCell id="96" value="@ GRID_H: self._game_state.GRID_H" style="text;strokeColor=none;fillColor=none;align=left;verticalAlign=top;spacingLeft=4;spacingRight=4;overflow=hidden;rotatable=0;points=[[0,0.5],[1,0.5]];portConstraint=eastwest;" parent="78" vertex="1"><mxGeometry y="666" width="260" height="28" as="geometry"/></mxCell><mxCell id="97" value="@ CELL_W: float" style="text;strokeColor=none;fillColor=none;align=left;verticalAlign=top;spacingLeft=4;spacingRight=4;overflow=hidden;rotatable=0;points=[[0,0.5],[1,0.5]];portConstraint=eastwest;" parent="78" vertex="1"><mxGeometry y="694" width="260" height="28" as="geometry"/></mxCell><mxCell id="100" value="@ CELL_H: float" style="text;strokeColor=none;fillColor=none;align=left;verticalAlign=top;spacingLeft=4;spacingRight=4;overflow=hidden;rotatable=0;points=[[0,0.5],[1,0.5]];portConstraint=eastwest;" parent="78" vertex="1"><mxGeometry y="722" width="260" height="28" as="geometry"/></mxCell><mxCell id="24" value="Game" style="swimlane;fontStyle=1;align=center;verticalAlign=top;childLayout=stackLayout;horizontal=1;startSize=26;horizontalStack=0;resizeParent=1;resizeParentMax=0;resizeLast=0;collapsible=1;marginBottom=0;fillColor=#0050ef;strokeColor=#001DBC;fontColor=#ffffff;" parent="1" vertex="1"><mxGeometry x="270" y="10" width="260" height="972" as="geometry"/></mxCell><mxCell id="30" value="- _renderer: Renderer" style="text;strokeColor=none;fillColor=none;align=left;verticalAlign=top;spacingLeft=4;spacingRight=4;overflow=hidden;rotatable=0;points=[[0,0.5],[1,0.5]];portConstraint=eastwest;" parent="24" vertex="1"><mxGeometry y="26" width="260" height="26" as="geometry"/></mxCell><mxCell id="28" value="- enable_render: boolean" style="text;strokeColor=none;fillColor=none;align=left;verticalAlign=top;spacingLeft=4;spacingRight=4;overflow=hidden;rotatable=0;points=[[0,0.5],[1,0.5]];portConstraint=eastwest;" parent="24" vertex="1"><mxGeometry y="52" width="260" height="26" as="geometry"/></mxCell><mxCell id="139" value="- _hare_reward: int" style="text;strokeColor=none;fillColor=none;align=left;verticalAlign=top;spacingLeft=4;spacingRight=4;overflow=hidden;rotatable=0;points=[[0,0.5],[1,0.5]];portConstraint=eastwest;" vertex="1" parent="24"><mxGeometry y="78" width="260" height="26" as="geometry"/></mxCell><mxCell id="140" value="-  _stag_reward: int" style="text;strokeColor=none;fillColor=none;align=left;verticalAlign=top;spacingLeft=4;spacingRight=4;overflow=hidden;rotatable=0;points=[[0,0.5],[1,0.5]];portConstraint=eastwest;" vertex="1" parent="24"><mxGeometry y="104" width="260" height="26" as="geometry"/></mxCell><mxCell id="141" value="- _mauling_punishment: int" style="text;strokeColor=none;fillColor=none;align=left;verticalAlign=top;spacingLeft=4;spacingRight=4;overflow=hidden;rotatable=0;points=[[0,0.5],[1,0.5]];portConstraint=eastwest;" vertex="1" parent="24"><mxGeometry y="130" width="260" height="26" as="geometry"/></mxCell><mxCell id="101" value="- _grid_size: tuple" style="text;strokeColor=none;fillColor=none;align=left;verticalAlign=top;spacingLeft=4;spacingRight=4;overflow=hidden;rotatable=0;points=[[0,0.5],[1,0.5]];portConstraint=eastwest;" parent="24" vertex="1"><mxGeometry y="156" width="260" height="26" as="geometry"/></mxCell><mxCell id="33" value="- _a_pos: np.array" style="text;strokeColor=none;fillColor=none;align=left;verticalAlign=top;spacingLeft=4;spacingRight=4;overflow=hidden;rotatable=0;points=[[0,0.5],[1,0.5]];portConstraint=eastwest;" parent="24" vertex="1"><mxGeometry y="182" width="260" height="26" as="geometry"/></mxCell><mxCell id="35" value="- _b_pos: np.array" style="text;strokeColor=none;fillColor=none;align=left;verticalAlign=top;spacingLeft=4;spacingRight=4;overflow=hidden;rotatable=0;points=[[0,0.5],[1,0.5]];portConstraint=eastwest;" parent="24" vertex="1"><mxGeometry y="208" width="260" height="26" as="geometry"/></mxCell><mxCell id="34" value="- _stag_pos: np.array" style="text;strokeColor=none;fillColor=none;align=left;verticalAlign=top;spacingLeft=4;spacingRight=4;overflow=hidden;rotatable=0;points=[[0,0.5],[1,0.5]];portConstraint=eastwest;" parent="24" vertex="1"><mxGeometry y="234" width="260" height="26" as="geometry"/></mxCell><mxCell id="31" value="- _hare_pos: np.array" style="text;strokeColor=none;fillColor=none;align=left;verticalAlign=top;spacingLeft=4;spacingRight=4;overflow=hidden;rotatable=0;points=[[0,0.5],[1,0.5]];portConstraint=eastwest;" parent="24" vertex="1"><mxGeometry y="260" width="260" height="26" as="geometry"/></mxCell><mxCell id="26" value="" style="line;strokeWidth=1;fillColor=none;align=left;verticalAlign=middle;spacingTop=-1;spacingLeft=3;spacingRight=3;rotatable=0;labelPosition=right;points=[];portConstraint=eastwest;" parent="24" vertex="1"><mxGeometry y="286" width="260" height="8" as="geometry"/></mxCell><mxCell id="131" value="+ _calc_reward(): boolean" style="text;strokeColor=none;fillColor=none;align=left;verticalAlign=top;spacingLeft=4;spacingRight=4;overflow=hidden;rotatable=0;points=[[0,0.5],[1,0.5]];portConstraint=eastwest;" parent="24" vertex="1"><mxGeometry y="294" width="260" height="28" as="geometry"/></mxCell><mxCell id="132" value="+ update_state(agent_moves: array): array" style="text;strokeColor=none;fillColor=none;align=left;verticalAlign=top;spacingLeft=4;spacingRight=4;overflow=hidden;rotatable=0;points=[[0,0.5],[1,0.5]];portConstraint=eastwest;" parent="24" vertex="1"><mxGeometry y="322" width="260" height="28" as="geometry"/></mxCell><mxCell id="133" value="+ _move_prey(agent, action): None" style="text;strokeColor=none;fillColor=none;align=left;verticalAlign=top;spacingLeft=4;spacingRight=4;overflow=hidden;rotatable=0;points=[[0,0.5],[1,0.5]];portConstraint=eastwest;" parent="24" vertex="1"><mxGeometry y="350" width="260" height="28" as="geometry"/></mxCell><mxCell id="27" value="+ _move_agent(agent, action): array" style="text;strokeColor=none;fillColor=none;align=left;verticalAlign=top;spacingLeft=4;spacingRight=4;overflow=hidden;rotatable=0;points=[[0,0.5],[1,0.5]];portConstraint=eastwest;" parent="24" vertex="1"><mxGeometry y="378" width="260" height="28" as="geometry"/></mxCell><mxCell id="47" value="+ _reset_agents(): None" style="text;strokeColor=none;fillColor=none;align=left;verticalAlign=top;spacingLeft=4;spacingRight=4;overflow=hidden;rotatable=0;points=[[0,0.5],[1,0.5]];portConstraint=eastwest;" parent="24" vertex="1"><mxGeometry y="406" width="260" height="28" as="geometry"/></mxCell><mxCell id="134" value="+ _random_move(pos:array): array" style="text;strokeColor=none;fillColor=none;align=left;verticalAlign=top;spacingLeft=4;spacingRight=4;overflow=hidden;rotatable=0;points=[[0,0.5],[1,0.5]];portConstraint=eastwest;" parent="24" vertex="1"><mxGeometry y="434" width="260" height="28" as="geometry"/></mxCell><mxCell id="135" value="+ _move_left(pos: array): array" style="text;strokeColor=none;fillColor=none;align=left;verticalAlign=top;spacingLeft=4;spacingRight=4;overflow=hidden;rotatable=0;points=[[0,0.5],[1,0.5]];portConstraint=eastwest;" parent="24" vertex="1"><mxGeometry y="462" width="260" height="28" as="geometry"/></mxCell><mxCell id="137" value="+ _move_right(pos: array): array" style="text;strokeColor=none;fillColor=none;align=left;verticalAlign=top;spacingLeft=4;spacingRight=4;overflow=hidden;rotatable=0;points=[[0,0.5],[1,0.5]];portConstraint=eastwest;" parent="24" vertex="1"><mxGeometry y="490" width="260" height="28" as="geometry"/></mxCell><mxCell id="138" value="+ _move_up(pos: array): array" style="text;strokeColor=none;fillColor=none;align=left;verticalAlign=top;spacingLeft=4;spacingRight=4;overflow=hidden;rotatable=0;points=[[0,0.5],[1,0.5]];portConstraint=eastwest;" parent="24" vertex="1"><mxGeometry y="518" width="260" height="28" as="geometry"/></mxCell><mxCell id="136" value="+ _move_down(pos: array): array" style="text;strokeColor=none;fillColor=none;align=left;verticalAlign=top;spacingLeft=4;spacingRight=4;overflow=hidden;rotatable=0;points=[[0,0.5],[1,0.5]];portConstraint=eastwest;" parent="24" vertex="1"><mxGeometry y="546" width="260" height="28" as="geometry"/></mxCell><mxCell id="48" value="+ make_random_moves(): None" style="text;strokeColor=none;fillColor=none;align=left;verticalAlign=top;spacingLeft=4;spacingRight=4;overflow=hidden;rotatable=0;points=[[0,0.5],[1,0.5]];portConstraint=eastwest;" parent="24" vertex="1"><mxGeometry y="574" width="260" height="28" as="geometry"/></mxCell><mxCell id="52" value="" style="line;strokeWidth=1;fillColor=none;align=left;verticalAlign=middle;spacingTop=-1;spacingLeft=3;spacingRight=3;rotatable=0;labelPosition=right;points=[];portConstraint=eastwest;" parent="24" vertex="1"><mxGeometry y="602" width="260" height="8" as="geometry"/></mxCell><mxCell id="49" value="@ GRID_DIMENSIONS: self.GRID_W, &#10;                                         self.GRID_H" style="text;strokeColor=none;fillColor=none;align=left;verticalAlign=top;spacingLeft=4;spacingRight=4;overflow=hidden;rotatable=0;points=[[0,0.5],[1,0.5]];portConstraint=eastwest;" parent="24" vertex="1"><mxGeometry y="610" width="260" height="40" as="geometry"/></mxCell><mxCell id="102" value="@ GRID_W: self._grid_size[0]" style="text;strokeColor=none;fillColor=none;align=left;verticalAlign=top;spacingLeft=4;spacingRight=4;overflow=hidden;rotatable=0;points=[[0,0.5],[1,0.5]];portConstraint=eastwest;" parent="24" vertex="1"><mxGeometry y="650" width="260" height="28" as="geometry"/></mxCell><mxCell id="103" value="@ GRID_H: self._grid_size[1]" style="text;strokeColor=none;fillColor=none;align=left;verticalAlign=top;spacingLeft=4;spacingRight=4;overflow=hidden;rotatable=0;points=[[0,0.5],[1,0.5]];portConstraint=eastwest;" parent="24" vertex="1"><mxGeometry y="678" width="260" height="28" as="geometry"/></mxCell><mxCell id="50" value="@ AGENTS: self._a_pos,&#10;                      self._b_pos" style="text;strokeColor=none;fillColor=none;align=left;verticalAlign=top;spacingLeft=4;spacingRight=4;overflow=hidden;rotatable=0;points=[[0,0.5],[1,0.5]];portConstraint=eastwest;" parent="24" vertex="1"><mxGeometry y="706" width="260" height="38" as="geometry"/></mxCell><mxCell id="51" value="@ A_AGENT:  self._a_pos" style="text;strokeColor=none;fillColor=none;align=left;verticalAlign=top;spacingLeft=4;spacingRight=4;overflow=hidden;rotatable=0;points=[[0,0.5],[1,0.5]];portConstraint=eastwest;" parent="24" vertex="1"><mxGeometry y="744" width="260" height="28" as="geometry"/></mxCell><mxCell id="53" value="@ B_AGENT: self._b_pos" style="text;strokeColor=none;fillColor=none;align=left;verticalAlign=top;spacingLeft=4;spacingRight=4;overflow=hidden;rotatable=0;points=[[0,0.5],[1,0.5]];portConstraint=eastwest;" parent="24" vertex="1"><mxGeometry y="772" width="260" height="28" as="geometry"/></mxCell><mxCell id="54" value="@ STAG: self._stag_pos" style="text;strokeColor=none;fillColor=none;align=left;verticalAlign=top;spacingLeft=4;spacingRight=4;overflow=hidden;rotatable=0;points=[[0,0.5],[1,0.5]];portConstraint=eastwest;" parent="24" vertex="1"><mxGeometry y="800" width="260" height="28" as="geometry"/></mxCell><mxCell id="55" value="@ HARE: self._hare_pos" style="text;strokeColor=none;fillColor=none;align=left;verticalAlign=top;spacingLeft=4;spacingRight=4;overflow=hidden;rotatable=0;points=[[0,0.5],[1,0.5]];portConstraint=eastwest;" parent="24" vertex="1"><mxGeometry y="828" width="260" height="28" as="geometry"/></mxCell><mxCell id="56" value="@ ENTITY_POSITIONS:&#10;         {   'a_agent': self.A_AGENT,&#10;             'b_agent': self.B_AGENT,&#10;             'stag': self.STAG,&#10;             'hare': self.HARE  }" style="text;strokeColor=none;fillColor=none;align=left;verticalAlign=top;spacingLeft=4;spacingRight=4;overflow=hidden;rotatable=0;points=[[0,0.5],[1,0.5]];portConstraint=eastwest;" parent="24" vertex="1"><mxGeometry y="856" width="260" height="88" as="geometry"/></mxCell><mxCell id="63" value="@ RENDERER: self_renderer" style="text;strokeColor=none;fillColor=none;align=left;verticalAlign=top;spacingLeft=4;spacingRight=4;overflow=hidden;rotatable=0;points=[[0,0.5],[1,0.5]];portConstraint=eastwest;" parent="24" vertex="1"><mxGeometry y="944" width="260" height="28" as="geometry"/></mxCell><mxCell id="64" value="Entity" style="swimlane;fontStyle=1;align=center;verticalAlign=top;childLayout=stackLayout;horizontal=1;startSize=26;horizontalStack=0;resizeParent=1;resizeParentMax=0;resizeLast=0;collapsible=1;marginBottom=0;fillColor=#e3c800;strokeColor=#B09500;fontColor=#ffffff;" parent="1" vertex="1"><mxGeometry y="460" width="260" height="112" as="geometry"/></mxCell><mxCell id="65" value="- _cell_sizes = array" style="text;strokeColor=none;fillColor=none;align=left;verticalAlign=top;spacingLeft=4;spacingRight=4;overflow=hidden;rotatable=0;points=[[0,0.5],[1,0.5]];portConstraint=eastwest;" parent="64" vertex="1"><mxGeometry y="26" width="260" height="26" as="geometry"/></mxCell><mxCell id="68" value="- image = pg.image" style="text;strokeColor=none;fillColor=none;align=left;verticalAlign=top;spacingLeft=4;spacingRight=4;overflow=hidden;rotatable=0;points=[[0,0.5],[1,0.5]];portConstraint=eastwest;" parent="64" vertex="1"><mxGeometry y="52" width="260" height="26" as="geometry"/></mxCell><mxCell id="66" value="" style="line;strokeWidth=1;fillColor=none;align=left;verticalAlign=middle;spacingTop=-1;spacingLeft=3;spacingRight=3;rotatable=0;labelPosition=right;points=[];portConstraint=eastwest;" parent="64" vertex="1"><mxGeometry y="78" width="260" height="8" as="geometry"/></mxCell><mxCell id="67" value="+ update_rect(new_loc: array): None" style="text;strokeColor=none;fillColor=none;align=left;verticalAlign=top;spacingLeft=4;spacingRight=4;overflow=hidden;rotatable=0;points=[[0,0.5],[1,0.5]];portConstraint=eastwest;" parent="64" vertex="1"><mxGeometry y="86" width="260" height="26" as="geometry"/></mxCell><mxCell id="114" style="edgeStyle=orthogonalEdgeStyle;orthogonalLoop=1;jettySize=auto;html=1;exitX=1;exitY=0.5;exitDx=0;exitDy=0;entryX=-0.008;entryY=0.024;entryDx=0;entryDy=0;entryPerimeter=0;rounded=0;" parent="1" source="30" target="78" edge="1"><mxGeometry relative="1" as="geometry"/></mxCell><mxCell id="115" style="edgeStyle=orthogonalEdgeStyle;orthogonalLoop=1;jettySize=auto;html=1;exitX=0;exitY=0.5;exitDx=0;exitDy=0;entryX=0.5;entryY=1;entryDx=0;entryDy=0;rounded=0;" parent="1" source="86" target="64" edge="1"><mxGeometry relative="1" as="geometry"><mxPoint x="65" y="570" as="targetPoint"/><Array as="points"><mxPoint x="550" y="231"/><mxPoint x="550" y="1000"/><mxPoint x="130" y="1000"/></Array></mxGeometry></mxCell><mxCell id="117" style="edgeStyle=orthogonalEdgeStyle;orthogonalLoop=1;jettySize=auto;html=1;exitX=0;exitY=0.5;exitDx=0;exitDy=0;entryX=0.5;entryY=1;entryDx=0;entryDy=0;rounded=0;" parent="1" source="104" target="64" edge="1"><mxGeometry relative="1" as="geometry"><Array as="points"><mxPoint x="560" y="257"/><mxPoint x="560" y="1000"/><mxPoint x="130" y="1000"/></Array></mxGeometry></mxCell><mxCell id="118" style="edgeStyle=orthogonalEdgeStyle;orthogonalLoop=1;jettySize=auto;html=1;exitX=0;exitY=0.5;exitDx=0;exitDy=0;entryX=0.5;entryY=1;entryDx=0;entryDy=0;rounded=0;" parent="1" source="105" target="64" edge="1"><mxGeometry relative="1" as="geometry"><Array as="points"><mxPoint x="570" y="283"/><mxPoint x="570" y="1000"/><mxPoint x="130" y="1000"/></Array></mxGeometry></mxCell><mxCell id="119" style="edgeStyle=orthogonalEdgeStyle;orthogonalLoop=1;jettySize=auto;html=1;exitX=0;exitY=0.5;exitDx=0;exitDy=0;entryX=0.5;entryY=1;entryDx=0;entryDy=0;rounded=0;" parent="1" source="106" target="64" edge="1"><mxGeometry relative="1" as="geometry"><mxPoint x="113" y="575" as="targetPoint"/><Array as="points"><mxPoint x="580" y="309"/><mxPoint x="580" y="1000"/><mxPoint x="130" y="1000"/></Array></mxGeometry></mxCell><mxCell id="142" value="" style="group" vertex="1" connectable="0" parent="1"><mxGeometry y="1020" width="850" height="140" as="geometry"/></mxCell><mxCell id="121" value="" style="whiteSpace=wrap;html=1;" parent="142" vertex="1"><mxGeometry width="850" height="140" as="geometry"/></mxCell><mxCell id="122" value="&lt;h1&gt;OpenAI-Gym Stag Hunt&lt;/h1&gt;&lt;p&gt;An environment for single and multi agent reinforcement learning experiments.&lt;/p&gt;" style="text;html=1;strokeColor=none;fillColor=none;spacing=5;spacingTop=-20;whiteSpace=wrap;overflow=hidden;" parent="142" vertex="1"><mxGeometry x="10" y="10" width="190" height="120" as="geometry"/></mxCell><mxCell id="126" value="&lt;h1&gt;- attribute&lt;/h1&gt;" style="text;html=1;strokeColor=none;fillColor=none;spacing=5;spacingTop=-20;whiteSpace=wrap;overflow=hidden;" parent="142" vertex="1"><mxGeometry x="230" y="10" width="190" height="40" as="geometry"/></mxCell><mxCell id="127" value="&lt;h1&gt;+ method(param: type): return type&lt;/h1&gt;" style="text;html=1;strokeColor=none;fillColor=none;spacing=5;spacingTop=-20;whiteSpace=wrap;overflow=hidden;" parent="142" vertex="1"><mxGeometry x="230" y="50" width="430" height="40" as="geometry"/></mxCell><mxCell id="128" value="&lt;h1&gt;@ property: attribute reference&lt;/h1&gt;" style="text;html=1;strokeColor=none;fillColor=none;spacing=5;spacingTop=-20;whiteSpace=wrap;overflow=hidden;" parent="142" vertex="1"><mxGeometry x="230" y="90" width="390" height="40" as="geometry"/></mxCell><mxCell id="130" value="&lt;font color=&quot;#cccc00&quot;&gt;Key&lt;/font&gt;" style="text;strokeColor=none;fillColor=none;html=1;fontSize=24;fontStyle=1;verticalAlign=middle;align=center;" parent="142" vertex="1"><mxGeometry x="750" width="100" height="40" as="geometry"/></mxCell><mxCell id="123" value="" style="endArrow=none;html=1;exitX=0.25;exitY=1;exitDx=0;exitDy=0;entryX=0.25;entryY=0;entryDx=0;entryDy=0;" parent="142" source="121" target="121" edge="1"><mxGeometry width="50" height="50" relative="1" as="geometry"><mxPoint x="500" y="710" as="sourcePoint"/><mxPoint x="550" y="660" as="targetPoint"/></mxGeometry></mxCell></root></mxGraphModel></diagram></mxfile>